<svg width="1074" height="575" viewBox="0 0 1074 575" fill="none" xmlns="http://www.w3.org/2000/svg">
<path d="M540.446 521C831.67 521 1067.75 504.301 1067.75 483.701C1067.75 463.102 831.67 446.403 540.446 446.403C249.222 446.403 13.1387 463.102 13.1387 483.701C13.1387 504.301 249.222 521 540.446 521Z" fill="#F2F2F2"/>
<path d="M520.236 75.3782C434.323 75.3782 372.639 134.271 372.639 271.687C372.639 427.426 434.323 468.651 520.236 468.651C606.149 468.651 671.508 423.5 671.508 271.687C671.508 109.405 606.149 75.3782 520.236 75.3782ZM520.801 416.956C461.295 416.956 430.208 379.656 430.208 271.788C430.208 176.61 462.568 126.419 522.073 126.419C581.578 126.419 613.939 159.388 613.939 271.788C613.939 376.937 580.306 416.956 520.801 416.956Z" fill="#2F2E41"/>
<path d="M321.194 360.027H285.673V248.264C285.673 242.328 283.466 236.635 279.537 232.438C275.609 228.24 270.28 225.882 264.725 225.882H256.401C253.65 225.882 250.926 226.461 248.385 227.586C245.843 228.711 243.534 230.359 241.589 232.438C239.643 234.516 238.1 236.983 237.048 239.699C235.995 242.414 235.453 245.325 235.453 248.264V360.027H135.259C133.198 360.027 131.172 359.457 129.377 358.374C127.583 357.291 126.081 355.73 125.017 353.844C123.953 351.958 123.363 349.81 123.305 347.608C123.247 345.407 123.723 343.227 124.686 341.28L230.729 126.832C232.051 124.159 232.853 121.226 233.085 118.213C233.317 115.199 232.976 112.166 232.08 109.298C231.185 106.429 229.756 103.784 227.878 101.522C225.999 99.26 223.712 97.4282 221.152 96.137L214.892 92.9785C210.032 90.526 204.474 90.1638 199.371 91.967C194.267 93.7702 190.007 97.6007 187.473 102.666L58.1389 361.174C55.9365 365.576 54.7843 370.49 54.7843 375.482V375.482C54.7843 379.467 55.519 383.414 56.9465 387.096C58.374 390.779 60.4664 394.124 63.1041 396.943C65.7418 399.761 68.8732 401.996 72.3195 403.522C75.7658 405.047 79.4595 405.832 83.1898 405.832H235.453V476.503C235.453 480.026 236.102 483.515 237.364 486.77C238.626 490.025 240.476 492.983 242.807 495.474C245.139 497.965 247.907 499.942 250.954 501.29C254 502.638 257.265 503.332 260.563 503.332H260.563C263.86 503.332 267.126 502.638 270.172 501.29C273.218 499.942 275.987 497.965 278.318 495.474C280.65 492.983 282.499 490.025 283.761 486.77C285.023 483.515 285.673 480.026 285.673 476.503V405.832H321.194C326.879 405.832 332.331 403.419 336.351 399.124C340.371 394.829 342.629 389.003 342.629 382.929V382.929C342.629 376.855 340.371 371.03 336.351 366.735C332.331 362.439 326.879 360.027 321.194 360.027V360.027Z" fill="black"/>
<path d="M978.951 360.027H943.429V248.264C943.429 242.328 941.222 236.635 937.294 232.438C933.365 228.24 928.037 225.882 922.481 225.882H914.158C911.407 225.882 908.683 226.461 906.141 227.586C903.6 228.711 901.29 230.359 899.345 232.438C897.4 234.516 895.857 236.983 894.804 239.699C893.751 242.414 893.209 245.325 893.209 248.264V360.027H793.016C790.955 360.027 788.929 359.457 787.134 358.374C785.339 357.291 783.837 355.73 782.773 353.844C781.709 351.958 781.12 349.81 781.062 347.608C781.004 345.407 781.479 343.227 782.442 341.28L888.486 126.832C889.808 124.159 890.609 121.226 890.842 118.213C891.074 115.199 890.732 112.166 889.837 109.298C888.942 106.429 887.512 103.784 885.634 101.522C883.756 99.26 881.468 97.4282 878.909 96.137L872.649 92.9785C867.788 90.5259 862.231 90.1638 857.127 91.967C852.024 93.7702 847.764 97.6007 845.23 102.666L715.895 361.174C713.693 365.576 712.541 370.49 712.541 375.482V375.482C712.541 383.531 715.534 391.251 720.861 396.943C726.188 402.634 733.413 405.832 740.946 405.832H893.209V476.503C893.209 483.619 895.855 490.443 900.564 495.474C905.273 500.506 911.66 503.332 918.319 503.332V503.332C924.979 503.332 931.366 500.506 936.075 495.474C940.784 490.443 943.429 483.619 943.429 476.503V405.832H978.95C984.635 405.832 990.088 403.419 994.107 399.124C998.127 394.829 1000.39 389.003 1000.39 382.929V382.929C1000.39 376.855 998.127 371.03 994.107 366.735C990.088 362.44 984.635 360.027 978.951 360.027Z" fill="black"/>
<path d="M330.993 346.939H295.472V235.177C295.472 232.238 294.93 229.327 293.877 226.612C292.824 223.896 291.281 221.429 289.336 219.35C287.391 217.272 285.082 215.623 282.54 214.498C279.999 213.374 277.275 212.795 274.524 212.795H266.2C260.644 212.795 255.316 215.153 251.388 219.35C247.459 223.548 245.252 229.241 245.252 235.177V346.939H145.058C142.997 346.939 140.971 346.37 139.176 345.287C137.382 344.204 135.88 342.643 134.816 340.757C133.752 338.871 133.162 336.723 133.104 334.521C133.046 332.32 133.522 330.14 134.485 328.192L240.528 113.745C241.85 111.071 242.652 108.139 242.884 105.125C243.116 102.112 242.775 99.0791 241.88 96.2105C240.985 93.3418 239.555 90.6967 237.677 88.4347C235.798 86.1728 233.511 84.3409 230.952 83.0497L224.691 79.8912C219.831 77.4387 214.274 77.0765 209.17 78.8797C204.066 80.6829 199.806 84.5133 197.272 89.5786L67.9379 348.087C65.7355 352.489 64.5833 357.403 64.5833 362.395V362.395C64.5833 370.444 67.576 378.164 72.9031 383.855C78.2301 389.547 85.4552 392.745 92.9888 392.745H245.252V463.416C245.252 466.939 245.901 470.428 247.163 473.683C248.425 476.938 250.275 479.896 252.607 482.387C254.938 484.878 257.706 486.854 260.753 488.203C263.799 489.551 267.064 490.245 270.362 490.245H270.362C277.021 490.245 283.408 487.418 288.117 482.387C292.826 477.355 295.472 470.531 295.472 463.416V392.745H330.993C333.808 392.745 336.595 392.152 339.196 391.001C341.797 389.85 344.16 388.163 346.15 386.037C348.141 383.91 349.719 381.385 350.797 378.606C351.874 375.828 352.428 372.85 352.428 369.842V369.842C352.428 366.834 351.874 363.856 350.797 361.077C349.719 358.299 348.141 355.774 346.15 353.647C344.16 351.521 341.797 349.834 339.196 348.683C336.595 347.532 333.808 346.939 330.993 346.939V346.939Z" stroke="#3F3D56" stroke-miterlimit="10"/>
<path d="M997.324 346.939H961.802V235.177C961.802 229.241 959.595 223.548 955.667 219.35C951.738 215.153 946.41 212.795 940.854 212.795H932.531C929.78 212.795 927.056 213.374 924.514 214.498C921.973 215.623 919.663 217.272 917.718 219.35C915.773 221.429 914.23 223.896 913.177 226.612C912.124 229.327 911.583 232.238 911.583 235.177V346.939H811.389C809.328 346.939 807.302 346.37 805.507 345.287C803.712 344.204 802.21 342.643 801.146 340.757C800.082 338.871 799.493 336.723 799.435 334.521C799.377 332.32 799.852 330.14 800.815 328.192L906.859 113.745C908.181 111.071 908.982 108.139 909.215 105.125C909.447 102.112 909.105 99.0791 908.21 96.2105C907.315 93.3418 905.885 90.6967 904.007 88.4347C902.129 86.1728 899.841 84.3409 897.282 83.0497L891.022 79.8912C886.161 77.4387 880.604 77.0765 875.5 78.8797C870.397 80.6829 866.137 84.5133 863.603 89.5786L734.268 348.087C732.066 352.489 730.914 357.403 730.914 362.395C730.914 370.444 733.907 378.164 739.234 383.855C744.561 389.547 751.786 392.745 759.319 392.745H911.583V463.416C911.583 470.531 914.228 477.355 918.937 482.387C923.646 487.418 930.033 490.245 936.692 490.245V490.245C943.352 490.245 949.739 487.418 954.448 482.387C959.157 477.355 961.802 470.531 961.802 463.416V392.745H997.324C1000.14 392.745 1002.93 392.152 1005.53 391.001C1008.13 389.85 1010.49 388.163 1012.48 386.037C1014.47 383.91 1016.05 381.385 1017.13 378.606C1018.2 375.828 1018.76 372.85 1018.76 369.842V369.842C1018.76 363.768 1016.5 357.942 1012.48 353.647C1008.46 349.352 1003.01 346.939 997.324 346.939V346.939Z" stroke="#3F3D56" stroke-miterlimit="10"/>
<path d="M539.834 63.5996C453.921 63.5996 392.237 122.492 392.237 259.909C392.237 415.647 453.921 456.872 539.834 456.872C625.747 456.872 691.106 411.721 691.106 259.909C691.106 97.6265 625.746 63.5996 539.834 63.5996ZM540.399 405.177C480.893 405.177 449.806 367.877 449.806 260.009C449.806 164.832 482.166 114.64 541.671 114.64C601.176 114.64 633.537 147.609 633.537 260.009C633.537 365.158 599.904 405.177 540.399 405.177V405.177Z" stroke="#3F3D56" stroke-miterlimit="10"/>
<path d="M576.032 93.7266C575.255 97.1375 571.906 99.8691 568.196 101.778C560.397 105.79 550.777 106.988 541.446 107.389C539.066 107.544 536.678 107.497 534.304 107.248C529.705 106.773 525.39 104.654 522.058 101.234C521.82 101.068 521.626 100.841 521.492 100.573C521.359 100.305 521.291 100.005 521.296 99.7021C521.3 99.3988 521.376 99.1016 521.517 98.8382C521.658 98.5749 521.859 98.354 522.102 98.1963C527.069 92.3658 535.359 88.7908 543.71 86.2167C550.042 84.2649 561.085 79.2092 567.991 79.8915C574.681 80.5524 577.013 89.42 576.032 93.7266Z" fill="#3F3D56"/>
</svg>
